<svg width="31" height="31" viewBox="0 0 31 31" fill="none" xmlns="http://www.w3.org/2000/svg">
<g clip-path="url(#clip0_40_43)">
<path d="M30.4531 23.1758L29.0908 29.082C28.8995 29.917 28.1656 30.5012 27.3061 30.5012C12.5234 30.5 0.5 18.4765 0.5 3.69334C0.5 2.83435 1.08412 2.09959 1.91914 1.90916L7.82539 0.546854C8.68555 0.347518 9.56445 0.794002 9.92188 1.60857L12.6477 7.96599C12.9663 8.71482 12.7514 9.58728 12.1215 10.1017L8.9668 12.6347C10.9578 16.6906 14.2555 19.9883 18.3125 21.9804L20.8953 18.8281C21.4044 18.1965 22.2834 17.9779 23.0322 18.3022L29.3897 21.0274C30.1543 21.4297 30.6523 22.3203 30.4531 23.1758Z" fill="white"/>
</g>
<defs>
<clipPath id="clip0_40_43">
<rect width="30" height="30" fill="white" transform="translate(0.5 0.5)"/>
</clipPath>
</defs>
</svg>
