<svg width="30" height="30" viewBox="0 0 30 30" fill="none" xmlns="http://www.w3.org/2000/svg">
<path d="M14.9963 0.933594C9.31201 0.933594 4.68567 5.56178 4.68567 11.2461C4.68567 21.248 14.4159 28.8517 14.4159 28.8517C14.7577 29.1239 15.2423 29.1239 15.5841 28.8517C15.5841 28.8517 25.3162 21.248 25.3162 11.2461C25.3161 5.56178 20.6807 0.933594 14.9963 0.933594ZM14.9963 6.56042C17.5741 6.56042 19.6893 8.66837 19.6893 11.2461C19.6893 13.8238 17.5741 15.9373 14.9963 15.9373C12.4186 15.9373 10.3107 13.8238 10.3107 11.2461C10.3107 8.66837 12.4186 6.56042 14.9963 6.56042Z" fill="white"/>
</svg>
