<svg width="30" height="30" viewBox="0 0 30 30" fill="none" xmlns="http://www.w3.org/2000/svg">
<g clip-path="url(#clip0_40_39)">
<path d="M29.9531 22.6758L28.5908 28.582C28.3995 29.417 27.6656 30.0012 26.8061 30.0012C12.0234 30 0 17.9766 0 3.19336C0 2.33437 0.584121 1.59961 1.41914 1.40918L7.32539 0.0468747C8.18555 -0.152461 9.06445 0.294023 9.42188 1.10859L12.1477 7.46602C12.4663 8.21484 12.2514 9.0873 11.6215 9.60176L8.4668 12.1348C10.4578 16.1906 13.7555 19.4883 17.8125 21.4805L20.3953 18.3281C20.9044 17.6965 21.7834 17.4779 22.5322 17.8022L28.8897 20.5274C29.6543 20.9297 30.1523 21.8203 29.9531 22.6758Z" fill="white"/>
</g>
<defs>
<clipPath id="clip0_40_39">
<rect width="30" height="30" fill="white"/>
</clipPath>
</defs>
</svg>
