<svg width="30" height="31" viewBox="0 0 30 31" fill="none" xmlns="http://www.w3.org/2000/svg">
<path d="M14.9963 1.43359C9.31201 1.43359 4.68567 6.06178 4.68567 11.7461C4.68567 21.748 14.4159 29.3517 14.4159 29.3517C14.7577 29.6239 15.2423 29.6239 15.5841 29.3517C15.5841 29.3517 25.3162 21.748 25.3162 11.7461C25.3161 6.06178 20.6807 1.43359 14.9963 1.43359ZM14.9963 7.06042C17.5741 7.06042 19.6893 9.16837 19.6893 11.7461C19.6893 14.3238 17.5741 16.4373 14.9963 16.4373C12.4186 16.4373 10.3107 14.3238 10.3107 11.7461C10.3107 9.16837 12.4186 7.06042 14.9963 7.06042Z" fill="white"/>
</svg>
