<svg width="30" height="31" viewBox="0 0 30 31" fill="none" xmlns="http://www.w3.org/2000/svg">
<g clip-path="url(#clip0_32_34)">
<path fill-rule="evenodd" clip-rule="evenodd" d="M26.3347 0.5C28.3577 0.5 30 2.14238 30 4.16527V26.8347C30 28.8576 28.3576 30.5 26.3347 30.5H3.66527C1.64238 30.5 0 28.8576 0 26.8347V4.16527C0 2.14238 1.64232 0.5 3.66527 0.5L26.3347 0.5ZM15 5.24609C12.2152 5.24609 11.866 5.25787 10.7723 5.30779C9.68092 5.3576 8.93555 5.53092 8.28328 5.78445C7.60898 6.04648 7.03717 6.39711 6.46711 6.96711C5.89705 7.53717 5.54643 8.10904 5.28439 8.78328C5.03092 9.43555 4.8576 10.1809 4.80773 11.2723C4.75787 12.366 4.74609 12.7152 4.74609 15.5C4.74609 18.2848 4.75787 18.634 4.80773 19.7277C4.8576 20.8191 5.03092 21.5645 5.28439 22.2167C5.54643 22.891 5.89705 23.4628 6.46711 24.0329C7.03717 24.6029 7.60898 24.9536 8.28328 25.2156C8.93555 25.4691 9.68092 25.6424 10.7723 25.6922C11.866 25.7421 12.2152 25.7539 15 25.7539C17.7848 25.7539 18.134 25.7421 19.2277 25.6922C20.3191 25.6424 21.0645 25.4691 21.7167 25.2156C22.391 24.9536 22.9628 24.6029 23.5329 24.0329C24.1029 23.4628 24.4536 22.891 24.7156 22.2167C24.9691 21.5645 25.1424 20.8191 25.1922 19.7277C25.2421 18.634 25.2539 18.2848 25.2539 15.5C25.2539 12.7152 25.2421 12.366 25.1922 11.2723C25.1424 10.1809 24.9691 9.43555 24.7156 8.78328C24.4536 8.10904 24.1029 7.53717 23.5329 6.96711C22.9628 6.39711 22.391 6.04648 21.7167 5.78445C21.0645 5.53092 20.3191 5.3576 19.2277 5.30779C18.134 5.25787 17.7848 5.24609 15 5.24609ZM15 7.09367C17.7379 7.09367 18.0622 7.1041 19.1435 7.15344C20.1432 7.19908 20.6861 7.36613 21.0475 7.50646C21.5261 7.6925 21.8677 7.91475 22.2265 8.27352C22.5853 8.63234 22.8075 8.97394 22.9935 9.45254C23.1339 9.81389 23.301 10.3568 23.3466 11.3565C23.3959 12.4378 23.4064 12.7621 23.4064 15.5C23.4064 18.2379 23.3959 18.5622 23.3466 19.6435C23.301 20.6432 23.1339 21.1861 22.9935 21.5475C22.8075 22.0261 22.5853 22.3677 22.2265 22.7265C21.8677 23.0853 21.5261 23.3075 21.0475 23.4935C20.6861 23.6339 20.1432 23.801 19.1435 23.8466C18.0624 23.8959 17.7381 23.9064 15 23.9064C12.2619 23.9064 11.9377 23.8959 10.8565 23.8466C9.85682 23.801 9.31389 23.6339 8.95254 23.4935C8.47389 23.3075 8.13234 23.0853 7.77352 22.7265C7.41469 22.3677 7.19244 22.0261 7.00646 21.5475C6.86607 21.1861 6.69902 20.6432 6.65338 19.6435C6.60404 18.5622 6.59361 18.2379 6.59361 15.5C6.59361 12.7621 6.60404 12.4378 6.65338 11.3565C6.69902 10.3568 6.86607 9.81389 7.00646 9.45254C7.19244 8.97394 7.41469 8.63234 7.77352 8.27352C8.13234 7.91475 8.47389 7.6925 8.95254 7.50646C9.31389 7.36613 9.85682 7.19908 10.8565 7.15344C11.9378 7.1041 12.2621 7.09367 15 7.09367ZM15 10.2345C12.0919 10.2345 9.73447 12.5919 9.73447 15.5C9.73447 18.4081 12.0919 20.7655 15 20.7655C17.9081 20.7655 20.2655 18.4081 20.2655 15.5C20.2655 12.5919 17.9081 10.2345 15 10.2345ZM15 18.9179C13.1123 18.9179 11.5821 17.3877 11.5821 15.5C11.5821 13.6123 13.1123 12.0821 15 12.0821C16.8877 12.0821 18.4179 13.6123 18.4179 15.5C18.4179 17.3877 16.8877 18.9179 15 18.9179ZM21.7041 10.0265C21.7041 10.706 21.1531 11.2569 20.4735 11.2569C19.794 11.2569 19.2431 10.706 19.2431 10.0265C19.2431 9.3469 19.794 8.796 20.4735 8.796C21.1531 8.796 21.7041 9.3469 21.7041 10.0265Z" fill="white"/>
</g>
<defs>
<clipPath id="clip0_32_34">
<rect width="30" height="30" fill="white" transform="translate(0 0.5)"/>
</clipPath>
</defs>
</svg>
