<svg width="81" height="81" viewBox="0 0 81 81" fill="none" xmlns="http://www.w3.org/2000/svg">
<rect x="81" y="81" width="81" height="81" rx="8" transform="rotate(-180 81 81)" fill="#3D2A79"/>
<path d="M57.4749 42.4749C58.8417 41.108 58.8417 38.892 57.4749 37.5251L35.201 15.2513C33.8342 13.8844 31.6181 13.8844 30.2513 15.2513C28.8844 16.6181 28.8844 18.8342 30.2513 20.201L50.0503 40L30.2513 59.799C28.8844 61.1658 28.8844 63.3819 30.2513 64.7487C31.6181 66.1156 33.8342 66.1156 35.201 64.7487L57.4749 42.4749ZM55 36.5L54.9999 36.5L54.9999 43.5L55 43.5L55 36.5Z" fill="white"/>
</svg>
