<svg width="30" height="31" viewBox="0 0 30 31" fill="none" xmlns="http://www.w3.org/2000/svg">
<g clip-path="url(#clip0_32_29)">
<path d="M2.12413 30.4142C1.65628 30.3136 1.09438 30.0259 0.800237 29.7365C0.48147 29.4228 0.271599 29.0505 0.121245 28.5321L0 28.114V15.5766C0 3.85685 0.005923 3.01622 0.0908315 2.68671C0.315612 1.81437 0.792947 1.19032 1.49475 0.851278C2.27151 0.476029 1.33545 0.500319 15.0194 0.500319C28.6496 0.500319 27.8043 0.479186 28.5354 0.838241C29.2307 1.1797 29.6992 1.8119 29.9046 2.68567C29.9954 3.07214 30 3.69018 30 15.6028C30 27.3081 29.9941 28.1368 29.909 28.4674C29.6362 29.5264 28.9428 30.1963 27.8888 30.4192C27.3646 30.5301 2.64039 30.5253 2.12413 30.4142ZM26.5647 14.9485V6.25863H15.0262H3.48776V14.9485V23.6383H15.0262H26.5647V14.9485ZM7.4635 20.7722C8.12817 20.0884 9.4389 18.7516 10.3762 17.8014L12.0805 16.0739L12.7797 16.7815C13.5152 17.5256 13.7747 17.7031 14.3513 17.8563C14.721 17.9545 15.3986 17.9525 15.7849 17.8521C16.3026 17.7175 16.5903 17.5219 17.3339 16.7993L18.042 16.1112L20.3496 18.4667C21.6189 19.7623 22.913 21.0908 23.2255 21.4189L23.7936 22.0155H15.0243H6.255L7.4635 20.7722ZM5.11914 14.9485L5.11935 9.05927L8.02391 11.9876L10.9285 14.916L9.36409 16.5158C8.50368 17.3956 7.19653 18.728 6.45932 19.4766L5.11893 20.8376L5.11914 14.9485ZM24.0185 19.9085C23.5338 19.4118 22.2411 18.0921 21.1459 16.9759L19.1547 14.9463L22.0461 12.0551L24.9374 9.16396L24.9381 14.9877C24.9385 18.1908 24.93 20.8115 24.9193 20.8115C24.9086 20.8115 24.5033 20.4051 24.0185 19.9085ZM14.5605 16.2109C14.4631 16.159 12.56 14.2696 10.3314 12.0121L6.27946 7.9076L10.6791 7.89422C13.0988 7.88686 17.063 7.88686 19.4884 7.89422L23.8981 7.9076L19.7904 12.038C17.2872 14.555 15.6166 16.1959 15.5135 16.2389C15.2721 16.3396 14.7751 16.325 14.5605 16.2109Z" fill="white"/>
</g>
<defs>
<clipPath id="clip0_32_29">
<rect width="30" height="30" fill="white" transform="translate(0 0.5)"/>
</clipPath>
</defs>
</svg>
