<svg width="30" height="31" viewBox="0 0 30 31" fill="none" xmlns="http://www.w3.org/2000/svg">
<g clip-path="url(#clip0_32_27)">
<path d="M29.9531 23.1756L28.5908 29.0819C28.3995 29.9168 27.6656 30.501 26.8061 30.501C12.0234 30.4999 0 18.4764 0 3.69322C0 2.83423 0.584121 2.09947 1.41914 1.90904L7.32539 0.546732C8.18555 0.347396 9.06445 0.79388 9.42188 1.60845L12.1477 7.96587C12.4663 8.7147 12.2514 9.58716 11.6215 10.1016L8.4668 12.6346C10.4578 16.6905 13.7555 19.9881 17.8125 21.9803L20.3953 18.828C20.9044 18.1963 21.7834 17.9778 22.5322 18.3021L28.8897 21.0273C29.6543 21.4295 30.1523 22.3202 29.9531 23.1756Z" fill="white"/>
</g>
<defs>
<clipPath id="clip0_32_27">
<rect width="30" height="30" fill="white" transform="translate(0 0.5)"/>
</clipPath>
</defs>
</svg>
