<svg width="30" height="31" viewBox="0 0 30 31" fill="none" xmlns="http://www.w3.org/2000/svg">
<g clip-path="url(#clip0_32_32)">
<path fill-rule="evenodd" clip-rule="evenodd" d="M26.3347 0.5C28.3577 0.5 30 2.14238 30 4.16527V26.8347C30 28.8576 28.3576 30.5 26.3347 30.5H3.66527C1.64238 30.5 0 28.8576 0 26.8347V4.16527C0 2.14238 1.64232 0.5 3.66527 0.5L26.3347 0.5ZM22.8969 7.9826C20.9139 5.99738 18.2769 4.90361 15.4673 4.90244C9.67828 4.90244 4.9667 9.61367 4.96441 15.4044C4.96365 17.2556 5.44729 19.0623 6.36639 20.6551L4.87641 26.0976L10.444 24.6371C11.9781 25.4738 13.7053 25.9149 15.4631 25.9154H15.4674C21.2558 25.9154 25.9678 21.2037 25.9702 15.4129C25.9712 12.6065 24.8797 9.96775 22.8969 7.9826ZM15.4673 24.1417H15.4638C13.8974 24.1411 12.3611 23.7202 11.0208 22.9249L10.702 22.7357L7.39811 23.6024L8.27994 20.3811L8.0724 20.0508C7.19859 18.661 6.73699 17.0546 6.7377 15.4051C6.73963 10.5921 10.6557 6.67631 15.4709 6.67631C17.8025 6.67713 19.9942 7.58633 21.6425 9.23639C23.2906 10.8864 24.1977 13.0797 24.1968 15.4122C24.1948 20.2256 20.2789 24.1416 15.4673 24.1417ZM20.2557 17.6038C19.9932 17.4724 18.703 16.8376 18.4625 16.75C18.222 16.6624 18.047 16.6187 17.872 16.8813C17.6971 17.144 17.1942 17.7351 17.0411 17.9103C16.888 18.0854 16.7349 18.1074 16.4725 17.9759C16.2101 17.8446 15.3645 17.5675 14.3621 16.6734C13.582 15.9775 13.0553 15.1182 12.9022 14.8555C12.7492 14.5927 12.8859 14.4507 13.0172 14.3199C13.1354 14.2023 13.2797 14.0134 13.4109 13.8601C13.5422 13.7069 13.5859 13.5974 13.6734 13.4223C13.7609 13.2471 13.7171 13.094 13.6515 12.9626C13.5859 12.8313 13.061 11.5395 12.8423 11.014C12.6294 10.5023 12.413 10.5716 12.2519 10.5635C12.099 10.5559 11.9239 10.5543 11.749 10.5543C11.574 10.5543 11.2897 10.62 11.0491 10.8826C10.8086 11.1454 10.1307 11.7803 10.1307 13.0719C10.1307 14.3637 11.071 15.6115 11.2022 15.7867C11.3334 15.9619 13.0527 18.6125 15.6853 19.7492C16.3113 20.0196 16.8002 20.1811 17.1813 20.302C17.8099 20.5018 18.382 20.4736 18.8342 20.406C19.3384 20.3307 20.3869 19.7712 20.6055 19.1582C20.8242 18.5451 20.8242 18.0197 20.7586 17.9103C20.693 17.8008 20.5181 17.7351 20.2557 17.6038Z" fill="white"/>
</g>
<defs>
<clipPath id="clip0_32_32">
<rect width="30" height="30" fill="white" transform="translate(0 0.5)"/>
</clipPath>
</defs>
</svg>
